<svg width="180" height="221" viewBox="0 0 180 221" fill="none" xmlns="http://www.w3.org/2000/svg">
<ellipse cx="168.801" cy="10.9823" rx="10.8013" ry="10.9823" fill="#FFBF5E"/>
<path d="M166.826 14.1935L163.773 11.2801C163.59 11.105 163.59 10.8212 163.773 10.6462L164.437 10.0123C164.621 9.83723 164.918 9.83723 165.102 10.0123L167.158 11.9749L171.562 7.77117C171.746 7.59613 172.043 7.59613 172.227 7.77117L172.891 8.40505C173.074 8.58009 173.074 8.86389 172.891 9.03894L167.49 14.1935C167.307 14.3686 167.009 14.3686 166.826 14.1935Z" fill="black"/>
<path d="M0.602539 30C0.602539 13.4315 14.034 0 30.6025 0H80.6025H123.603H131.188C139.479 0 146.82 5.35522 149.353 13.25V13.25L149.51 13.7402C152.055 21.6741 158.519 27.7292 166.603 29.75V29.75V29.75C174.243 31.66 179.603 38.5248 179.603 46.4001V59V117V191C179.603 207.569 166.171 221 149.603 221H30.6025C14.034 221 0.602539 207.569 0.602539 191V30Z" fill="#6F6F6F"/>
</svg>
