<svg width="363" height="254" viewBox="0 0 363 254" fill="none" xmlns="http://www.w3.org/2000/svg">
<path d="M162.911 129.574C162.911 152.167 146.759 171.697 123.3 180.997C113.435 184.857 102.931 186.819 92.3386 186.781C68.0852 186.781 46.6596 176.85 33.955 161.735C33.955 161.735 33.955 161.735 33.955 161.704C26.2661 152.549 21.7767 141.488 21.7767 129.574C21.7767 114.976 28.5212 101.658 39.6158 91.552C39.3733 92.1923 29.3313 118.363 48.0632 139.153C42.0979 109.202 56.5467 96.7831 73.0752 81.317C89.6036 65.8509 42.1392 69.6567 42.3508 42.8093C42.3508 42.8093 45.0341 54.5005 68.5135 60.5837C91.9928 66.6668 102.251 70.075 86.946 95.017C71.7954 119.742 84.5929 135.203 84.8458 135.502C84.6858 135.151 74.7523 113.091 96.1985 90.8238C117.789 68.3761 116.84 61.4512 92.3644 52.218C67.8891 42.9849 104.682 31.1284 100.574 0C100.574 0 107.324 13.9427 99.1089 31.0509C89.1082 51.8772 134.116 47.8338 134.539 68.3967C134.963 88.9596 98.6909 101.126 111.685 130.499C124.678 159.871 145.092 129.027 134.116 109.724C134.116 109.724 145.438 121.265 145.438 133.432C145.438 133.432 153.617 127.349 146.904 112.874C140.19 98.3994 129.085 86.2279 147.11 71.5622C146.898 71.8979 135.928 89.0784 149.215 100.088C162.632 111.196 163.21 124.312 162.911 129.574Z" fill="#FE8A01"/>
<path d="M162.911 129.574C162.911 152.167 146.759 171.697 123.3 180.997C159.686 163.341 160.346 130.54 153.901 119.184C158.205 135.368 150.805 154.299 143.751 150.003C139.37 147.328 138.441 142.665 138.368 139.51C137.656 144.736 134.72 154.532 122.846 156.287C122.846 156.287 75.5108 142.293 107.267 101.926C139.024 61.5596 114.456 57.9552 114.456 57.9552C114.456 57.9552 133.44 64.5186 104.068 96.7262C76.9918 126.424 89.9081 156.716 100.229 164.978C50.1738 150.447 69.8448 102.815 70.1183 102.154C43.1196 130.209 61.6915 170.488 61.6915 170.488C7.88513 144.823 37.9542 94.2217 39.5332 91.6501C18.892 122.954 22.5043 145.717 33.9343 161.704C26.2455 152.549 21.756 141.488 21.756 129.574C21.756 114.976 28.5005 101.658 39.5952 91.5519C39.3526 92.1923 29.3107 118.363 48.0426 139.153C42.0773 109.202 56.5261 96.7831 73.0545 81.317C89.583 65.8509 42.1392 69.6567 42.3508 42.8093C42.3508 42.8093 45.0341 54.5005 68.5135 60.5837C91.9928 66.6668 102.251 70.075 86.946 95.017C71.7954 119.742 84.5929 135.203 84.8458 135.502C84.6858 135.151 74.7523 113.091 96.1985 90.8238C117.789 68.3761 116.84 61.4512 92.3644 52.218C67.8891 42.9849 104.682 31.1284 100.574 0C100.574 0 107.324 13.9427 99.1089 31.0509C89.1082 51.8772 134.116 47.8338 134.539 68.3967C134.963 88.9596 98.6909 101.126 111.685 130.499C124.678 159.871 145.092 129.027 134.116 109.724C134.116 109.724 145.438 121.265 145.438 133.432C145.438 133.432 153.617 127.349 146.904 112.874C140.19 98.3994 129.085 86.2279 147.11 71.5622C146.898 71.8979 135.928 89.0784 149.215 100.088C162.632 111.196 163.21 124.312 162.911 129.574Z" fill="#FEBF00"/>
<path d="M176.131 131.196C187.293 132.957 194.538 136.731 196.055 142.458C200.101 157.718 161.961 181.085 110.869 194.64C59.7771 208.196 15.0786 206.822 11.0329 191.583C9.51578 185.851 13.9433 178.983 22.7674 171.919C6.82727 182.107 -1.85235 192.43 0.335616 200.667C4.9128 217.95 55.5508 219.515 113.387 204.157C171.224 188.8 214.441 162.329 209.885 145.061C207.676 136.845 195.028 132.161 176.131 131.196Z" fill="#857B68"/>
<path d="M137.641 207.24C130.668 209.809 123.46 212.086 116.019 214.072C108.583 216.05 101.178 217.635 93.8299 218.859C49.8487 227.731 13.1074 226.507 1.31091 215.74C17.8239 248.351 70.2164 262.913 125.101 248.351C179.986 233.788 218.281 195.141 216.475 158.642C211.572 173.84 180.249 193.132 137.641 207.24Z" fill="#857B68"/>
<path d="M221.062 186.781C221.062 186.781 216.531 159.148 247.488 144.674C278.445 130.199 319.056 118.203 334.903 90.8858C350.751 63.5684 391.987 92.8223 324.991 121.064C257.994 149.306 238.54 149.616 221.062 186.781Z" fill="#857B68"/>
</svg>
